<svg xmlns="http://www.w3.org/2000/svg" viewBox="0 0 100 100">
  <defs>
    <linearGradient id="goldGrad" x1="0%" y1="0%" x2="100%" y2="100%">
      <stop offset="0%" style="stop-color:#d4a853;stop-opacity:1" />
      <stop offset="100%" style="stop-color:#bd9b30;stop-opacity:1" />
    </linearGradient>
  </defs>
  <circle cx="50" cy="50" r="48" fill="#1d1b38"/>
  <!-- Particle ring -->
  <g fill="url(#goldGrad)">
    <circle cx="12" cy="50" r="2.5" opacity="0.8"/>
    <circle cx="15" cy="38" r="1.8" opacity="0.6"/>
    <circle cx="18" cy="28" r="2.2" opacity="0.7"/>
    <circle cx="25" cy="18" r="1.5" opacity="0.5"/>
    <circle cx="35" cy="12" r="2.8" opacity="0.85"/>
    <circle cx="48" cy="10" r="2.0" opacity="0.65"/>
    <circle cx="60" cy="11" r="2.4" opacity="0.75"/>
    <circle cx="72" cy="15" r="1.6" opacity="0.55"/>
    <circle cx="80" cy="22" r="2.6" opacity="0.8"/>
    <circle cx="86" cy="32" r="1.9" opacity="0.6"/>
    <circle cx="88" cy="45" r="2.3" opacity="0.7"/>
    <circle cx="87" cy="58" r="2.1" opacity="0.65"/>
    <circle cx="83" cy="70" r="1.7" opacity="0.5"/>
    <circle cx="76" cy="80" r="2.5" opacity="0.75"/>
    <circle cx="65" cy="86" r="2.0" opacity="0.6"/>
    <circle cx="52" cy="89" r="2.7" opacity="0.85"/>
    <circle cx="40" cy="87" r="1.8" opacity="0.55"/>
    <circle cx="28" cy="82" r="2.4" opacity="0.7"/>
    <circle cx="18" cy="73" r="2.2" opacity="0.65"/>
    <circle cx="13" cy="62" r="1.6" opacity="0.5"/>
    <circle cx="22" cy="45" r="1.2" opacity="0.4"/>
    <circle cx="30" cy="35" r="1.5" opacity="0.45"/>
    <circle cx="42" cy="25" r="1.3" opacity="0.4"/>
    <circle cx="55" cy="22" r="1.8" opacity="0.5"/>
    <circle cx="68" cy="28" r="1.4" opacity="0.45"/>
    <circle cx="75" cy="40" r="1.6" opacity="0.5"/>
    <circle cx="78" cy="55" r="1.3" opacity="0.4"/>
    <circle cx="73" cy="68" r="1.7" opacity="0.55"/>
    <circle cx="62" cy="76" r="1.5" opacity="0.45"/>
    <circle cx="48" cy="78" r="1.9" opacity="0.55"/>
    <circle cx="35" cy="74" r="1.4" opacity="0.4"/>
    <circle cx="25" cy="65" r="1.6" opacity="0.5"/>
  </g>
</svg>
